<svg xmlns="http://www.w3.org/2000/svg" width="24" height="24"><g fill="none" fill-rule="evenodd"><path d="M0 24h24V0H0z"/><g stroke="#000" stroke-linecap="round"><path stroke-linejoin="round" d="M20 11.992S16.509 16 12 16s-8-4.008-8-4.008S7.491 8 12 8c4.509-.015 8 3.992 8 3.992z"/><path d="M4.8 11L3.5 9.921m1.8-1.862l1.3 1.667m2-1.079l-.9-1.961m3.1 1.079L10.5 6m10 3.921L19.2 11m-.5-2.941l-1.3 1.667m-1.1-3.04l-.9 1.961M13.5 6l-.3 1.765"/><path stroke-linejoin="round" d="M15.5 12a3.5 3.5 0 1 1-7 0 3.5 3.5 0 0 1 7 0z"/><path stroke-linejoin="round" stroke-width="1.5" d="M14.5 10.25a.75.75 0 1 1-1.5 0 .75.75 0 0 1 1.5 0z"/></g></g></svg>