<svg xmlns="http://www.w3.org/2000/svg" width="24" height="24" viewBox="0 0 24 24">
    <g fill="none" fill-rule="evenodd">
        <path d="M0 0H24V24H0z"/>
        <path stroke="#1DA1F2" d="M12 22.5c7.991 0 10.5-2.501 10.5-10.466C22.5 4.047 19.97 1.5 12 1.5 4.03 1.5 1.5 4.048 1.5 12.034 1.5 20 4.009 22.5 12 22.5z"/>
        <path fill="#1DA1F2" d="M9.924 17.875c5.19 0 8.027-4.3 8.027-8.027 0-.122-.003-.243-.008-.364.55-.399 1.03-.895 1.407-1.461-.505.224-1.05.376-1.62.444.582-.35 1.03-.902 1.24-1.56-.545.323-1.148.558-1.79.684-.516-.548-1.249-.891-2.06-.891-1.558 0-2.821 1.263-2.821 2.82 0 .222.024.437.073.644-2.345-.118-4.424-1.24-5.815-2.947-.242.416-.382.9-.382 1.418 0 .978.498 1.842 1.255 2.348-.462-.015-.897-.142-1.277-.353l-.001.036c0 1.366.973 2.507 2.263 2.765-.237.065-.486.1-.743.1-.182 0-.359-.018-.53-.051.358 1.12 1.4 1.936 2.635 1.96-.966.756-2.182 1.207-3.504 1.207-.228 0-.452-.013-.673-.04 1.249.8 2.73 1.268 4.324 1.268"/>
    </g>
</svg>
