<?xml version="1.0" encoding="UTF-8"?>
<!DOCTYPE svg PUBLIC "-//W3C//DTD SVG 1.1//EN" "http://www.w3.org/Graphics/SVG/1.1/DTD/svg11.dtd">
<!-- Creator: CorelDRAW 2017 -->
<svg xmlns="http://www.w3.org/2000/svg" xml:space="preserve" width="83.29mm" height="28.8mm" version="1.1" style="shape-rendering:geometricPrecision; text-rendering:geometricPrecision; image-rendering:optimizeQuality; fill-rule:evenodd; clip-rule:evenodd"
viewBox="0 0 8329 2880"
 xmlns:xlink="http://www.w3.org/1999/xlink">
 <defs>
  <style type="text/css">
   <![CDATA[
    .fil2 {fill:#267ED1}
    .fil0 {fill:#EE7838;fill-rule:nonzero}
    .fil1 {fill:#267ED1;fill-rule:nonzero}
   ]]>
  </style>
 </defs>
 <g id="Слой_x0020_1">
  <metadata id="CorelCorpID_0Corel-Layer"/>
  <g id="_2498942547584">
   <path class="fil0" d="M4442 434c0,-107 -88,-172 -206,-172l-316 0 0 345 316 0c118,0 206,-67 206,-173zm-820 867l0 -1278 654 0c304,0 469,187 469,411 0,223 -167,413 -469,413l-356 0 0 454 -298 0z"/>
   <path class="fil0" d="M5436 294l-208 542 417 0 -208 -542zm367 991l-81 -213 -572 0 -84 213 -324 0 516 -1258 356 0 513 1258 -324 0z"/>
   <polygon class="fil0" points="6621,1301 6621,778 6123,23 6437,23 6759,536 7075,23 7388,23 6896,778 6896,1301 "/>
   <path class="fil1" d="M4416 2487c0,-80 -58,-149 -166,-149l-353 0 0 297 353 0c104,0 166,-56 166,-148zm-25 -521c0,-80 -58,-139 -151,-139l-343 0 0 277 343 0c93,0 151,-58 151,-138zm-768 904l0 -1278 678 0c244,0 369,155 369,326 0,161 -100,268 -221,293 137,21 247,153 247,314 0,192 -129,345 -375,345l-698 0z"/>
   <path class="fil1" d="M5889 2198c0,-244 -154,-427 -391,-427 -236,0 -389,184 -389,427 0,242 153,427 389,427 236,0 391,-186 391,-427zm-1060 0c0,-392 282,-673 669,-673 388,0 672,280 672,673 0,392 -284,673 -672,673 -387,0 -669,-281 -669,-673l0 0z"/>
   <polygon class="fil1" points="7122,2871 6806,2402 6488,2871 6170,2871 6627,2215 6198,1593 6518,1593 6806,2030 7091,1593 7414,1593 6986,2213 7443,2871 "/>
   <path class="fil2" d="M8 1442l415 -720 232 -403 187 316 -142 246 -323 560 323 560 323 560 4 0 659 -1123 0 0 0 0 -659 -1116 -4 0 -187 -316 2 -4 366 0 465 0 831 0 415 720 415 720 -415 719 -415 720 -831 0 -101 0 188 -320 559 0 323 -560 323 -560 -323 -560 -323 -560 -646 0 -276 0 659 1116 -660 1123 1 0 -189 320 -366 0 -415 -720 -415 -719zm2045 -3l0 0 0 0z"/>
   <path class="fil0" d="M7779 2815c0,-34 -25,-56 -59,-56 -34,0 -59,22 -59,55 0,33 24,56 59,56 34,0 59,-22 59,-55zm352 -157l0 -80 -272 0c-14,0 -28,-2 -40,-7 -41,-13 -82,-50 -82,-101 0,-62 52,-94 124,-94l270 0 0 -80 -278 0c-15,0 -30,-3 -41,-7 -40,-14 -74,-50 -74,-97 0,-66 52,-98 139,-98l255 0 0 -80 -265 0c-156,0 -196,88 -196,148 0,43 11,73 32,100 14,19 34,36 59,50l0 2c-53,20 -90,66 -90,128 0,74 40,116 83,142l0 3 -73 4 0 72c37,-3 75,-4 122,-4l329 0zm-461 -967c0,125 88,223 239,223 142,0 232,-94 232,-216 0,-109 -73,-224 -239,-224 -138,0 -232,88 -232,217zm61 2c0,-97 97,-135 173,-135 101,0 175,59 175,137 0,80 -74,137 -173,137 -86,0 -175,-42 -175,-139zm399 -322l0 -82 -271 0c-14,0 -28,-2 -38,-6 -46,-14 -84,-56 -84,-110 0,-77 61,-104 133,-104l260 0 0 -82 -269 0c-155,0 -192,97 -192,159 0,74 42,127 85,149l0 2 -74 5 0 73c37,-3 75,-4 122,-4l329 0zm-210 -879c-8,-1 -21,-3 -38,-3 -83,0 -212,39 -212,186 0,131 107,211 243,211 136,0 227,-83 227,-222 0,-72 -15,-121 -28,-150l-59 14c13,31 23,66 23,125 0,82 -46,153 -156,155l0 -317zm-59 316c-57,-7 -133,-43 -133,-126 0,-92 81,-115 133,-114l0 239zm-182 -360l415 -167c10,-4 17,-6 21,-6 5,0 11,3 20,7 42,19 74,47 91,69 20,24 34,51 40,72l69 -20c-4,-21 -18,-61 -53,-101 -48,-56 -128,-96 -282,-155l-321 -123 0 87 264 89c33,11 67,20 94,29l0 2c-27,7 -62,19 -92,29l-266 99 0 89z"/>
  </g>
 </g>
</svg>
