<?xml version="1.0" encoding="UTF-8" standalone="no"?>
<svg width="16px" height="11px" viewBox="0 0 16 11" version="1.1" xmlns="http://www.w3.org/2000/svg" xmlns:xlink="http://www.w3.org/1999/xlink">
    <!-- Generator: sketchtool 3.8.3 (29802) - http://www.bohemiancoding.com/sketch -->
    <title>F7E0B16D-D0F9-4BA7-B894-42594ECD086F</title>
    <desc>Created with sketchtool.</desc>
    <defs>
        <rect id="path-1" x="0" y="0" width="16" height="11"></rect>
        <rect id="path-3" x="0" y="0" width="16" height="11"></rect>
        <mask id="mask-4" maskContentUnits="userSpaceOnUse" maskUnits="objectBoundingBox" x="0" y="0" width="16" height="11" fill="white">
            <use xlink:href="#path-3"></use>
        </mask>
    </defs>
    <g id="controls" stroke="none" stroke-width="1" fill="none" fill-rule="evenodd">
        <g id="иконки" transform="translate(-951.000000, -1734.000000)">
            <g id="казахстан" transform="translate(951.000000, 1734.000000)">
                <g id="россия-copy">
                    <mask id="mask-2" fill="white">
                        <use xlink:href="#path-1"></use>
                    </mask>
                    <use id="Mask" fill="#00D0F7" xlink:href="#path-1"></use>
                    <rect id="Rectangle-61" fill="#FFDE6E" mask="url(#mask-2)" x="1" y="0" width="1" height="11"></rect>
                    <g id="Mask-Copy" mask="url(#mask-2)" stroke-opacity="0.08" stroke="#222222" stroke-width="2">
                        <use mask="url(#mask-4)" xlink:href="#path-3"></use>
                    </g>
                </g>
                <g id="g6215" transform="translate(4.000000, 1.000000)" fill="#FFDE6E">
                    <path d="M0.428116996,3.27272727 L0.513515019,3.39771298 C0.643601977,3.64640864 0.740529582,3.91295955 0.859138289,4.16930727 L0.834957376,3.84970153 L0.835977148,3.55636792 L0.949484259,3.51810731 L0.96101384,3.61625898 C1.00304966,3.99376655 1.1140573,4.36362172 1.27985441,4.70669419 C1.55788357,5.27933203 1.9889562,5.77799876 2.51950688,6.12999902 C3.08576806,6.50878165 3.76426095,6.71283971 4.44658004,6.71028891 L4.48106578,6.80089085 L4.37010913,6.86843396 L4.16987726,7.02275282 L3.70553372,7.17324725 L2.80032687,6.920724 C2.73711491,6.90873899 2.50378235,6.83428127 2.09200378,6.49347886 C1.67297979,6.14667989 1.07594932,5.53353891 1.07594932,5.53353891 L1.21368867,5.63684351 L1.21062593,5.69295936 L1.07671278,5.6970405 L1.13282897,5.76080876 L1.45039414,5.90237396 L1.49753156,5.93298252 L1.49242996,5.96991708 L1.39427829,6.00052598 L1.54987255,6.10638104 L1.5371189,6.15484484 L1.42616224,6.19943146 L1.71056806,6.34227206 L1.72077091,6.39073587 L1.63282209,6.44175047 L1.7514308,6.49531552 L1.91850331,6.51439484 L1.93003255,6.59856879 L1.81397464,6.68141636 L2.0920038,6.82553237 C2.27438042,6.90715552 2.46058357,6.98112663 2.65571384,7.02448917 C2.8176851,7.06397419 2.9847576,7.06785138 3.15055471,7.06274978 L3.24880871,7.06989195 L3.20544616,7.12345735 L2.95802589,7.1732472 C2.73356213,7.18477678 2.51037376,7.13753704 2.29483745,7.07887039 C2.00533004,6.99979803 1.73367787,6.87481233 1.46840236,6.73834872 L1.3842284,6.67580488 L1.39035011,6.63121826 L1.49237897,6.59805891 L1.1454803,6.53429066 L1.08303878,6.49347891 L1.11874894,6.41950815 L1.270517,6.38502206 L1.12512559,6.33788465 L0.961879278,6.27666754 L0.919843118,6.20137005 L0.983611369,6.17198556 L1.17874198,6.15535473 L1.12395217,6.12474617 L0.805111597,6.05077507 L0.710734791,5.96527473 L0.711754563,5.91813731 L0.769094829,5.8939564 L1.02544255,5.90793446 L0.943819392,5.84416621 L0.71425403,5.73831115 L0.394138061,5.48578929 L0.292109202,5.34039822 L0.30608692,5.26254993 L0.400463726,5.26254993 C0.526724829,5.2994845 0.635130684,5.37223119 0.755014791,5.42452119 C0.55095673,5.24214423 0.337971217,5.06869473 0.159420456,4.86463666 L0,4.60318735 L0,4.56880358 L0.0217320913,4.52544138 L0.08682673,4.53941944 L0.206710837,4.62747024 C0.335522395,4.73970229 0.4579573,4.8608618 0.591870456,4.96926765 L0.737261521,5.05986925 L0.645435513,4.91575324 C0.500044106,4.70404313 0.355928099,4.49233301 0.228391939,4.26914431 C0.141667186,4.10972419 0.0574932319,3.94775294 0.0217830798,3.76920218 L0.0472903802,3.55749206 L0.128913536,3.6225867 C0.303638441,3.88658682 0.442652852,4.17354309 0.62502981,4.43499275 L0.753841369,4.57018096 L0.728334068,4.47580415 C0.62502981,4.19022492 0.506421103,3.9083699 0.418420951,3.61631168 L0.362305095,3.35613777 L0.376283156,3.275841 L0.428116996,3.27272727 Z M5.74127795,7.33016442 L5.81269825,7.30720792 L6.00400266,7.33404161 C6.26545198,7.35954891 6.52690129,7.36587457 6.79090141,7.37607777 L7.04979992,7.39515708 L7.08163323,7.41433838 L6.95792293,7.65793279 C6.83931422,7.72037465 6.69902441,7.72425149 6.56893711,7.71149819 L6.53577776,7.85816465 L6.41971985,7.91815769 L6.16082133,7.89009993 L6.02818357,8.01125944 L5.87514011,7.97432488 L5.64940061,8.09675944 L5.5116616,8.08145533 L5.33693703,8.17460773 L5.18899483,8.11971628 L5.01044407,8.21664355 L4.950553,8.21664355 L4.8561762,8.12604195 L4.72226304,8.17960701 L4.55391513,8.1592013 L4.49147327,8.14899845 L4.28231395,8.18348419 L4.2032416,8.12736834 L4.03234289,8.18858579 L3.90608179,8.15032484 L3.90506202,8.03809279 L4.02749692,7.93739031 L4.22777977,7.7728686 L4.27369278,7.76133936 C4.50453354,7.78174507 4.73920015,7.78562225 4.96749011,7.73970891 C5.09757707,7.71287556 5.22766403,7.6733902 5.34754814,7.61344815 L5.43304848,7.58283959 L5.59246894,7.59202199 L5.606447,7.53468172 L5.66256285,7.50407317 L5.72245392,7.43520332 L5.74163521,7.33062366 L5.74127795,7.33016442 L5.74127795,7.33016442 Z M8.96411943,3.86755473 L8.98075027,3.69410556 L8.95779376,3.61880807 L8.9183084,3.62492978 L8.84811251,3.70910374 C8.6338516,4.02411845 8.45657624,4.35953887 8.23083707,4.66435039 L8.10074977,4.79571275 L8.17849608,4.58910389 C8.30730764,4.27408952 8.44759745,3.962901 8.55600331,3.64023423 L8.62232236,3.37368332 L8.58151061,3.28440811 L8.50243825,3.34684963 L8.34556859,3.65676275 C8.26006825,3.84041511 8.18359734,4.02534252 8.09432213,4.20644408 C8.09432213,4.00621222 8.11605422,3.80725575 8.10585137,3.60702389 L8.08411928,3.52540039 L7.98851806,3.51825857 L7.97831521,3.58967887 C7.93240186,4.14956305 7.7104889,4.68776613 7.38144548,5.13924446 C7.10214091,5.52823028 6.74759019,5.8598245 6.35095232,6.12510001 C5.90967684,6.41843328 5.40845932,6.63907119 4.87918369,6.71304195 L4.59860407,6.8048683 C4.48127042,6.86486134 4.37286456,6.94643351 4.26063285,7.01785381 L3.95199513,7.18620172 C3.80660373,7.23721598 3.65611072,7.28057853 3.52729916,7.36602788 L3.24544414,7.6466075 L3.24850346,7.80602796 L3.31482251,7.86724541 L3.36716316,7.76139035 L3.39399684,7.7552683 L3.43480859,7.78710161 L3.56106935,7.74628986 L3.66947521,7.73914803 C4.06866388,7.72129279 4.4716784,7.70221347 4.87086707,7.68813343 L5.12976559,7.61926393 L5.16037414,7.58488016 L5.11068627,7.54917001 L5.52327149,7.36602798 C5.70182225,7.16707117 7.82073,5.68494628 7.82073,5.68494628 L7.81154726,5.75514218 L7.93398217,5.74595978 L7.8715403,5.82115495 L7.57055464,5.98695206 L7.54504734,6.03674225 L7.60881559,6.08643047 L7.38817802,6.21141617 L7.35879354,6.25222758 L7.40348213,6.31222062 L7.19687361,6.38109047 L7.14198183,6.41680062 L7.15728627,6.51240149 L7.10759806,6.56729328 L7.01322125,6.57882252 L6.99026475,6.64391716 L7.04893141,6.73186598 L6.94562715,6.75992408 L6.72498924,6.86960533 L6.56429373,6.92449678 L6.29774281,6.98183704 L6.0095108,7.03540244 L5.96237338,7.06723541 L6.02236643,7.09784431 C6.21112004,7.10600659 6.39987365,7.07488746 6.58735221,7.04682971 C6.79268567,7.01499674 6.99801878,6.9779602 7.19697559,6.91546735 L7.46990316,6.82996701 L7.55530152,6.76487237 L7.51836696,6.71895936 L7.381903,6.67427077 L7.52601901,6.64111142 L7.77726548,6.59907526 L7.78746833,6.50980005 L7.62677281,6.46000986 L7.85506278,6.41032165 L8.03361354,6.3440026 L8.0295324,6.26870545 L7.87138734,6.23809655 L7.92240194,6.19850955 L8.20043076,6.0901037 L8.26797422,5.9842483 L8.22338726,5.94598769 L8.04101065,5.95108895 L8.16094574,5.88599465 L8.37010506,5.74953069 L8.58054011,5.56970454 L8.68134456,5.42686393 L8.66859091,5.34268997 L8.58054011,5.35289282 L8.35607601,5.47532773 L8.18135144,5.55695088 L8.23614091,5.47532773 L8.56135848,5.16924081 C8.66466308,5.06593621 8.76669194,4.96390735 8.85214129,4.84529864 L8.92866285,4.67822613 L8.87377141,4.60037784 L8.7322062,4.66669689 C8.58426399,4.77637781 8.45672783,4.90901556 8.31261183,5.02507381 L8.19145232,5.10159537 L8.31516262,4.92432001 C8.44907544,4.75087085 8.57916274,4.57487054 8.69904684,4.38994313 C8.80469897,4.22593165 8.90800357,4.05503328 8.96411943,3.86755473 Z" id="path15156"></path>
                    <polyline id="path15162" points="4.51923062 0.820058441 4.36363636 0.654261331 4.51923062 0 4.67609994 0.654261331 4.51923062 0.820058441"></polyline>
                    <polyline id="path15164" points="4.00310923 0.80475365 3.81818182 0.672115894 3.84246471 0 4.12559513 0.610898441 4.00316022 0.80475365"></polyline>
                    <polyline id="path15166" points="3.58646659 1.03029286 3.37858233 0.935916056 3.27272727 0.272727273 3.66681434 0.817307349 3.5864156 1.03029286"></polyline>
                    <polyline id="path15168" points="3.18257691 1.22649823 2.95938854 1.17548363 2.72727273 0.545454545 3.21956246 1.00203447 3.1826279 1.22649823"></polyline>
                    <polyline id="path15170" points="2.76210807 1.39694136 2.53381811 1.39081965 2.18181818 0.818181818 2.75445601 1.17018208 2.76159784 1.39719665"></polyline>
                    <polyline id="path15172" points="2.59141 1.82021595 2.36694623 1.8584769 1.90909091 1.36363636 2.53912 1.59702758 2.59135901 1.82021595"></polyline>
                    <polyline id="path15174" points="2.39520462 2.22277924 2.18094371 2.30317798 1.63636364 1.90909091 2.30082782 2.01494597 2.39520462 2.22283022"></polyline>
                    <polyline id="path15176" points="2.16839001 2.6395242 1.97325975 2.76068336 1.36363636 2.48137914 2.0357526 2.45454545 2.16839001 2.63947321"></polyline>
                    <polyline id="path15178" points="2.18369446 2.88286699 2.01662195 3.03973664 1.36363636 2.88286699 2.01662195 2.72727273 2.18369446 2.88286699"></polyline>
                    <polyline id="path15180" points="2.16839036 3.39383579 2.0344772 3.5800386 1.36363636 3.55585803 1.97325975 3.27272727 2.16839036 3.39388678"></polyline>
                    <polyline id="path15182" points="2.39265348 3.89980532 2.30082748 4.10896463 1.63636364 4.21226889 2.18094337 3.81818182 2.39265348 3.89980532"></polyline>
                    <polyline id="path15184" points="2.58891019 4.12917004 2.53912034 4.35108301 1.90909091 4.58447457 2.36567083 4.09090909 2.5888592 4.12917004"></polyline>
                    <polyline id="path15186" points="2.76159818 4.36363636 2.75445601 4.59192633 2.18181818 4.94392659 2.53381811 4.37128842 2.76210807 4.36414659"></polyline>
                    <polyline id="path15188" points="3.18385265 4.63636364 3.2195628 4.8621028 2.72727273 5.31995812 2.95938889 4.68865364 3.18385265 4.63641462"></polyline>
                    <polyline id="path15190" points="3.5864156 4.9091419 3.66681434 5.12212741 3.27272727 5.66670749 3.37858267 5.0022433 3.58646659 4.90909091"></polyline>
                    <polyline id="path15192" points="4.00310957 5.18181818 4.12554448 5.37567339 3.84368912 5.98529643 3.81818182 5.31318054 4.00310957 5.18181818"></polyline>
                    <polyline id="path15194" points="4.52050602 5.18181818 4.67610028 5.34889069 4.52050602 6.00315168 4.36363636 5.34889069 4.52050602 5.18181818"></polyline>
                    <polyline id="path15196" points="4.75757413 5.18181818 4.94505269 5.31445594 4.918219 5.98657183 4.63636364 5.37567305 4.75752314 5.18181818"></polyline>
                    <polyline id="path15198" points="5.26216594 4.90909091 5.47260065 5.00346772 5.57718065 5.6679319 5.18181818 5.12207642 5.26221693 4.90909091"></polyline>
                    <polyline id="path15200" points="5.76553368 4.63636364 5.98872204 4.68737824 6.2208382 5.31868272 5.72727273 4.8621028 5.76553368 4.63636364"></polyline>
                    <polyline id="path15202" points="6 4.36389165 6.22828996 4.37001336 6.57901483 4.94265119 6.006377 4.59192633 6.00025529 4.36363636"></polyline>
                    <polyline id="path15204" points="6.27272727 4.12784331 6.49846644 4.09090909 6.95504602 4.58447422 6.32374153 4.35108301 6.27272727 4.12789464"></polyline>
                    <polyline id="path15206" points="6.54545455 3.89858056 6.7584404 3.81818182 7.30302013 4.21354429 6.6372809 4.10768923 6.54545455 3.89852957"></polyline>
                    <polyline id="path15208" points="6.54545455 3.39261138 6.73930975 3.27272727 7.35020854 3.55203149 6.6768169 3.57886518 6.54545455 3.39266237"></polyline>
                    <polyline id="path15210" points="6.54545455 2.88669318 6.7125274 2.72727273 7.36551299 2.88669318 6.7125274 3.04228744 6.54545455 2.88669318"></polyline>
                    <polyline id="path15212" points="6.54545455 2.64074827 6.6768169 2.45454545 7.35020854 2.48127682 6.73803436 2.76185679 6.54545455 2.64069728"></polyline>
                    <polyline id="path15214" points="6.54545455 2.22282988 6.63860728 2.01494597 7.30307112 1.90909091 6.75721599 2.30317798 6.54550553 2.22277889"></polyline>
                    <polyline id="path15216" points="6.27272727 1.81894089 6.32374187 1.59702792 6.95377096 1.36363636 6.49846644 1.85720184 6.27272727 1.81894089"></polyline>
                    <polyline id="path15218" points="6.00025494 1.39719665 6.00637665 1.16763129 6.58028989 0.818181818 6.22828962 1.38954459 6 1.39770688"></polyline>
                    <polyline id="path15220" points="5.76686007 1.22649823 5.72727273 1.00203447 6.22211326 0.545454545 5.98872204 1.17548363 5.76680908 1.22649823"></polyline>
                    <polyline id="path15222" points="5.26221693 1.03029286 5.18181818 0.817307349 5.57590525 0.272727273 5.4700502 0.937191113 5.26216594 1.03024187"></polyline>
                    <polyline id="path15224" points="4.75879854 0.80475365 4.63636364 0.610898441 4.91821866 2.10731306e-15 4.94505234 0.672115894 4.75884953 0.80475365"></polyline>
                    <path d="M6.30869142,3.0192573 C6.30869142,4.08290981 5.44527112,4.94505506 4.38034321,4.94505506 C3.3166907,4.94505506 2.45454545,4.08290981 2.45454545,3.0192573 C2.45454545,1.95560479 3.3166907,1.09090909 4.38034321,1.09090909 C5.44527112,1.09090909 6.30869142,1.95560479 6.30869142,3.0192573" id="path15226"></path>
                </g>
            </g>
        </g>
    </g>
</svg>