<svg xmlns="http://www.w3.org/2000/svg" width="24" height="24" viewBox="0 0 24 24">
    <g fill="none" fill-rule="evenodd">
        <path d="M0 0H24V24H0z"/>
        <path stroke="#EE8208" d="M12 1.5c3.94 0 6.592.62 8.238 2.271C21.89 5.428 22.5 8.094 22.5 12.034c0 3.933-.607 6.579-2.253 8.22-1.646 1.64-4.3 2.246-8.247 2.246-3.946 0-6.6-.606-8.247-2.247-1.646-1.64-2.253-4.286-2.253-8.219 0-3.94.61-6.605 2.262-8.262C5.408 2.12 8.06 1.5 12 1.5h0z"/>
        <path fill="#EE8208" d="M8.456 12.764c.285-.458.886-.59 1.334-.306 1.344.846 3.086.846 4.43 0 .459-.285 1.05-.142 1.335.306.285.458.142 1.049-.306 1.334-.6.377-1.242.642-1.915.795l1.854 1.843c.377.377.377.988 0 1.365s-.988.377-1.365 0l-1.813-1.813-1.813 1.813c-.183.193-.438.285-.682.285-.245 0-.49-.102-.683-.285-.376-.377-.376-.988 0-1.365l1.844-1.843c-.672-.153-1.324-.418-1.915-.795-.458-.285-.59-.886-.305-1.334zM12 5.634c1.813 0 3.29 1.477 3.29 3.29s-1.477 3.29-3.29 3.29-3.29-1.477-3.29-3.29 1.477-3.29 3.29-3.29zm0 1.925c-.754 0-1.365.611-1.365 1.365S11.246 10.29 12 10.29s1.365-.611 1.365-1.365S12.754 7.56 12 7.56z"/>
    </g>
</svg>
